Coordinates
version=1
nRows=12
nColumns=24
inDegrees=yes

Units are S.I. units (second, meters, Newtons, ...)
Angles are in degrees.

endheader
time	pelvis_tilt	pelvis_list	pelvis_rotation	pelvis_tx	pelvis_ty	pelvis_tz	hip_flexion_r	hip_adduction_r	hip_rotation_r	knee_angle_r	ankle_angle_r	subtalar_angle_r	mtp_angle_r	hip_flexion_l	hip_adduction_l	hip_rotation_l	knee_angle_l	ankle_angle_l	subtalar_angle_l	mtp_angle_l	lumbar_extension	lumbar_bending	lumbar_rotation
      1.65000000	      9.57337603	     -5.85917810	      8.00779748	     -0.05691149	      1.00585441	     -0.02961107	     12.96864410	     -2.89903570	    -30.44426432	    -19.41234060	     -2.93736473	      7.25166209	      5.83315031	     -9.53498219	     -4.33865455	    -12.24307661	    -19.17361644	      7.96650755	     -4.53730660	      7.21776238	    -15.83224053	     17.41247464	     33.12737859
      1.65500000	      9.47986436	     -5.65712239	      8.28931708	     -0.05094432	      1.00470976	     -0.02948355	     13.23224175	     -3.02204887	    -31.13902796	    -18.07374230	     -3.01466914	      8.05756746	      5.68089484	     -9.74127184	     -4.25671744	    -12.11088074	    -19.30166007	      8.27011197	     -4.36660084	      7.32422993	    -15.69808000	     17.25664090	     32.92690561
      1.66000000	      9.36867277	     -5.45678845	      8.55700023	     -0.04498158	      1.00351550	     -0.02932367	     13.51388165	     -3.13872522	    -31.81117539	    -16.76335995	     -3.07544587	      8.92924329	      5.47925488	     -9.93202621	     -4.17453898	    -11.97712353	    -19.42821047	      8.56441208	     -4.20125141	      7.46382308	    -15.55290193	     17.10189011	     32.74845095
      1.66500000	      9.24081777	     -5.25774042	      8.81530091	     -0.03905392	      1.00228106	     -0.02914217	     13.82028046	     -3.25556386	    -32.44783918	    -15.52806391	     -2.76898637	      9.97011653	      2.88828699	    -10.10174916	     -4.08710328	    -11.83316355	    -19.54975618	      8.73146712	     -4.21891053	      8.52899535	    -15.39933862	     16.94259438	     32.56524224
      1.67000000	      9.11393122	     -5.05793433	      9.06088476	     -0.03310893	      1.00102525	     -0.02890043	     14.11367549	     -3.35857228	    -33.04948059	    -14.27206443	     -2.83492721	     10.88597684	      2.81465314	    -10.27331204	     -4.01266090	    -11.72935977	    -19.69549687	      9.02615767	     -3.97866475	      8.59904615	    -15.25583810	     16.78030633	     32.41554185
      1.67500000	      8.98178675	     -4.85823509	      9.31660656	     -0.02716982	      0.99973612	     -0.02867335	     14.40897809	     -3.46801382	    -33.65130916	    -13.06891121	     -2.83455261	     11.88942220	      2.66897758	    -10.43771368	     -3.93537077	    -11.58640576	    -19.84028110	      9.31855791	     -3.83948200	      8.70792763	    -15.10673426	     16.61986721	     32.24167080
      1.68000000	      8.82222749	     -4.66786290	      9.55278574	     -0.02124754	      0.99840001	     -0.02842935	     14.74090437	     -3.57185394	    -34.18443803	    -11.94660116	     -2.55000007	     12.94455251	      0.60912085	    -10.57583557	     -3.85494131	    -11.43350119	    -19.97199682	      9.49569801	     -3.86369468	      9.54690930	    -14.93763960	     16.46730914	     32.08284151
      1.68500000	      8.67685809	     -4.48418684	      9.78889565	     -0.01528808	      0.99708101	     -0.02812407	     15.04506383	     -3.65732198	    -34.68724448	    -10.83244589	     -2.57638313	     13.87943625	      0.53433243	    -10.73019887	     -3.80257847	    -11.32023005	    -20.11944149	      9.78222845	     -3.62268750	      9.62500586	    -14.78646079	     16.32064487	     31.95482919
      1.69000000	      8.51216234	     -4.30359810	     10.02036756	     -0.00932935	      0.99572496	     -0.02783245	     15.37170932	     -3.75155917	    -35.14655776	     -9.79528102	     -2.56569799	     14.80435625	      0.41254309	    -10.86588184	     -3.74380437	    -11.17776277	    -20.26206611	     10.04906495	     -3.48709473	      9.73374647	    -14.61569431	     16.17850812	     31.81622399
      1.69500000	      8.39441688	     -4.12527994	     10.27234225	     -0.00334662	      0.99442390	     -0.02756507	     15.63713409	     -3.84461277	    -35.59097825	     -8.83252532	     -2.45923384	     15.70737853	      0.10336893	    -11.05109178	     -3.69877901	    -11.01488182	    -20.40776140	     10.30371677	     -3.41433044	      9.94847470	    -14.49501854	     16.04845188	     31.63370677
      1.70000000	      8.21298753	     -3.96731227	     10.48423220	      0.00263148	      0.99305032	     -0.02725153	     15.98468786	     -3.93239793	    -35.91219570	     -7.98144821	     -2.13422938	     16.55081052	     -1.98402257	    -11.17261620	     -3.65556910	    -10.86160955	    -20.53228740	     10.38105080	     -3.45455647	     11.08974923	    -14.31627801	     15.93498184	     31.53958894
      1.70500000	      8.06429528	     -3.81736137	     10.71957402	      0.00866537	      0.99172569	     -0.02692289	     16.28458639	     -4.01388802	    -36.21489205	     -7.19102046	     -2.07572576	     17.20751045	     -2.05713180	    -11.32522322	     -3.64826697	    -10.71987071	    -20.68445751	     10.64675076	     -3.20983911	     11.16189881	    -14.16477653	     15.83423220	     31.41037281
